<svg xmlns="http://www.w3.org/2000/svg" viewBox="0 0 790.39 715.45"><defs><style>.cls-1{fill:#fbf7f7;}.cls-2{fill:#9d8057;}.cls-3{fill:#3544b1;}.cls-4{fill:#f5c1bc;}.cls-5{fill:#f2ebe6;}</style></defs><title>_CG20_heart</title><g id="Heart"><polygon class="cls-1" points="394.87 77.68 78.25 396.76 394.52 396.65 394.87 77.68"/><polyline class="cls-2" points="713.34 396.06 394.02 715.45 76.5 396.76 713.34 396.13"/><polygon class="cls-3" points="713.34 396.13 713.77 395.7 393.8 76.73 393.8 396.1 713.27 396.13 713.34 396.06 713.34 396.13"/><path class="cls-4" d="M724.44,66C636.51-22,493.94-22,406,66L394.5,77.43,713.42,395.35l11-11C812.37,296.44,812.37,153.88,724.44,66Z"/><path class="cls-5" d="M394.69,77.62,384.37,67.34C296.44-20.59,153.88-20.59,66,67.34S-22,297.83,66,385.77L78,397.8Z"/> </g></svg>